<mxfile host="65bd71144e">
    <diagram id="zADu6ZWXGb0-B_5NGSIa" name="Seite-1">
        <mxGraphModel dx="2898" dy="1036" grid="0" gridSize="10" guides="1" tooltips="1" connect="1" arrows="1" fold="1" page="0" pageScale="1" pageWidth="827" pageHeight="1169" math="0" shadow="0">
            <root>
                <mxCell id="0"/>
                <mxCell id="1" parent="0"/>
                <mxCell id="4" style="edgeStyle=none;html=1;" edge="1" parent="1" source="2" target="3">
                    <mxGeometry relative="1" as="geometry"/>
                </mxCell>
                <mxCell id="2" value="jasper.ai&lt;br&gt;AI authoring" style="rounded=0;whiteSpace=wrap;html=1;" vertex="1" parent="1">
                    <mxGeometry x="272" y="894" width="120" height="60" as="geometry"/>
                </mxCell>
                <mxCell id="3" value="Technical" style="ellipse;whiteSpace=wrap;html=1;aspect=fixed;" vertex="1" parent="1">
                    <mxGeometry x="485" y="962" width="80" height="80" as="geometry"/>
                </mxCell>
                <mxCell id="7" style="edgeStyle=none;html=1;" edge="1" parent="1" source="5" target="6">
                    <mxGeometry relative="1" as="geometry"/>
                </mxCell>
                <mxCell id="5" value="Value Generation" style="ellipse;whiteSpace=wrap;html=1;aspect=fixed;" vertex="1" parent="1">
                    <mxGeometry x="624" y="841" width="80" height="80" as="geometry"/>
                </mxCell>
                <mxCell id="11" style="edgeStyle=none;html=1;" edge="1" parent="1" source="6" target="8">
                    <mxGeometry relative="1" as="geometry"/>
                </mxCell>
                <mxCell id="6" value="AI generated Content with human intervention" style="text;html=1;strokeColor=none;fillColor=none;align=center;verticalAlign=middle;whiteSpace=wrap;rounded=0;" vertex="1" parent="1">
                    <mxGeometry x="600" y="744" width="150" height="30" as="geometry"/>
                </mxCell>
                <mxCell id="13" style="edgeStyle=none;html=1;" edge="1" parent="1" source="8" target="12">
                    <mxGeometry relative="1" as="geometry"/>
                </mxCell>
                <mxCell id="8" value="AI generate Video from Text" style="text;html=1;strokeColor=none;fillColor=none;align=center;verticalAlign=middle;whiteSpace=wrap;rounded=0;" vertex="1" parent="1">
                    <mxGeometry x="638" y="638" width="180" height="30" as="geometry"/>
                </mxCell>
                <mxCell id="10" style="edgeStyle=none;html=1;" edge="1" parent="1" source="9" target="8">
                    <mxGeometry relative="1" as="geometry"/>
                </mxCell>
                <UserObject label="synthesia.io" link="synthesia.io" id="9">
                    <mxCell style="text;whiteSpace=wrap;html=1;" vertex="1" parent="1">
                        <mxGeometry x="822" y="703" width="90" height="30" as="geometry"/>
                    </mxCell>
                </UserObject>
                <mxCell id="12" value="Publicize Corportate culture/vision" style="rounded=0;whiteSpace=wrap;html=1;" vertex="1" parent="1">
                    <mxGeometry x="691" y="498" width="120" height="70" as="geometry"/>
                </mxCell>
                <mxCell id="18" style="edgeStyle=none;html=1;" edge="1" parent="1" source="14" target="17">
                    <mxGeometry relative="1" as="geometry"/>
                </mxCell>
                <mxCell id="20" style="edgeStyle=none;html=1;" edge="1" parent="1" source="14" target="19">
                    <mxGeometry relative="1" as="geometry"/>
                </mxCell>
                <mxCell id="24" style="edgeStyle=none;html=1;fontColor=#FFFF00;" edge="1" parent="1" source="14" target="21">
                    <mxGeometry relative="1" as="geometry"/>
                </mxCell>
                <mxCell id="26" style="edgeStyle=none;html=1;fontColor=#FFFF00;" edge="1" parent="1" source="14" target="25">
                    <mxGeometry relative="1" as="geometry"/>
                </mxCell>
                <mxCell id="14" value="Competitors" style="ellipse;whiteSpace=wrap;html=1;aspect=fixed;" vertex="1" parent="1">
                    <mxGeometry x="784" y="985" width="80" height="80" as="geometry"/>
                </mxCell>
                <mxCell id="15" value="Author your Metaverse: Online AI assisted Literature Collaboration Platform" style="shape=cylinder3;whiteSpace=wrap;html=1;boundedLbl=1;backgroundOutline=1;size=15;dashed=1;fontStyle=1;fontColor=#FFFF00;" vertex="1" parent="1">
                    <mxGeometry x="590" y="940" width="160" height="120" as="geometry"/>
                </mxCell>
                <mxCell id="23" style="edgeStyle=none;html=1;" edge="1" parent="1" source="17" target="22">
                    <mxGeometry relative="1" as="geometry"/>
                </mxCell>
                <mxCell id="17" value="阿里文学" style="text;html=1;strokeColor=none;fillColor=none;align=center;verticalAlign=middle;whiteSpace=wrap;rounded=0;" vertex="1" parent="1">
                    <mxGeometry x="916" y="962" width="60" height="30" as="geometry"/>
                </mxCell>
                <mxCell id="19" value="腾讯文学" style="text;html=1;strokeColor=none;fillColor=none;align=center;verticalAlign=middle;whiteSpace=wrap;rounded=0;" vertex="1" parent="1">
                    <mxGeometry x="930" y="1020" width="60" height="35" as="geometry"/>
                </mxCell>
                <mxCell id="31" style="edgeStyle=none;html=1;fontColor=#FFFF00;" edge="1" parent="1" source="21" target="30">
                    <mxGeometry relative="1" as="geometry"/>
                </mxCell>
                <mxCell id="21" value="知识星球" style="text;html=1;strokeColor=none;fillColor=none;align=center;verticalAlign=middle;whiteSpace=wrap;rounded=0;" vertex="1" parent="1">
                    <mxGeometry x="925" y="1088" width="60" height="35" as="geometry"/>
                </mxCell>
                <mxCell id="22" value="Business Model" style="ellipse;whiteSpace=wrap;html=1;aspect=fixed;" vertex="1" parent="1">
                    <mxGeometry x="1100" y="925" width="60" height="60" as="geometry"/>
                </mxCell>
                <mxCell id="28" style="edgeStyle=none;html=1;fontColor=#FFFF00;" edge="1" parent="1" source="25" target="27">
                    <mxGeometry relative="1" as="geometry"/>
                </mxCell>
                <mxCell id="25" value="Celtx" style="text;html=1;strokeColor=none;fillColor=none;align=center;verticalAlign=middle;whiteSpace=wrap;rounded=0;" vertex="1" parent="1">
                    <mxGeometry x="846" y="1120" width="60" height="35" as="geometry"/>
                </mxCell>
                <mxCell id="27" value="Functionality" style="ellipse;whiteSpace=wrap;html=1;aspect=fixed;" vertex="1" parent="1">
                    <mxGeometry x="920" y="1220" width="80" height="80" as="geometry"/>
                </mxCell>
                <mxCell id="33" style="edgeStyle=none;html=1;fontColor=#FFFF00;" edge="1" parent="1" source="30" target="32">
                    <mxGeometry relative="1" as="geometry"/>
                </mxCell>
                <mxCell id="30" value="Business Model" style="ellipse;whiteSpace=wrap;html=1;aspect=fixed;" vertex="1" parent="1">
                    <mxGeometry x="1043" y="1107.5" width="60" height="60" as="geometry"/>
                </mxCell>
                <mxCell id="32" value="社群运营:&lt;br&gt;1. 用户无限制" style="text;html=1;strokeColor=none;fillColor=none;align=center;verticalAlign=middle;whiteSpace=wrap;rounded=0;" vertex="1" parent="1">
                    <mxGeometry x="1147" y="1080" width="97" height="45" as="geometry"/>
                </mxCell>
                <mxCell id="35" value="" style="rounded=0;whiteSpace=wrap;html=1;fontColor=#FFFF00;" vertex="1" parent="1">
                    <mxGeometry x="52" y="1716" width="498" height="305" as="geometry"/>
                </mxCell>
                <mxCell id="36" value="" style="rounded=0;whiteSpace=wrap;html=1;fontColor=#FFFF00;" vertex="1" parent="1">
                    <mxGeometry x="52" y="1716" width="500" height="43" as="geometry"/>
                </mxCell>
                <mxCell id="37" value="Tooltip" style="text;html=1;strokeColor=none;fillColor=none;align=center;verticalAlign=middle;whiteSpace=wrap;rounded=0;fontColor=#FFFF00;" vertex="1" parent="1">
                    <mxGeometry x="242" y="1722.5" width="60" height="30" as="geometry"/>
                </mxCell>
                <mxCell id="38" value="Account" style="text;html=1;strokeColor=none;fillColor=none;align=center;verticalAlign=middle;whiteSpace=wrap;rounded=0;fontColor=#FFFF00;" vertex="1" parent="1">
                    <mxGeometry x="486" y="1722.5" width="60" height="30" as="geometry"/>
                </mxCell>
                <mxCell id="39" value="" style="rounded=0;whiteSpace=wrap;html=1;fontColor=#FFFF00;" vertex="1" parent="1">
                    <mxGeometry x="52" y="1759" width="90" height="260" as="geometry"/>
                </mxCell>
                <mxCell id="41" value="" style="ellipse;whiteSpace=wrap;html=1;aspect=fixed;fontColor=#FFFF00;" vertex="1" parent="1">
                    <mxGeometry x="192" y="1786" width="30" height="30" as="geometry"/>
                </mxCell>
                <mxCell id="42" value="" style="ellipse;whiteSpace=wrap;html=1;aspect=fixed;fontColor=#FFFF00;" vertex="1" parent="1">
                    <mxGeometry x="232" y="1841" width="30" height="30" as="geometry"/>
                </mxCell>
                <mxCell id="43" value="" style="ellipse;whiteSpace=wrap;html=1;aspect=fixed;fontColor=#FFFF00;" vertex="1" parent="1">
                    <mxGeometry x="302" y="1806" width="30" height="30" as="geometry"/>
                </mxCell>
                <mxCell id="44" value="" style="ellipse;whiteSpace=wrap;html=1;aspect=fixed;fontColor=#FFFF00;" vertex="1" parent="1">
                    <mxGeometry x="182" y="1906" width="30" height="30" as="geometry"/>
                </mxCell>
                <mxCell id="45" value="" style="ellipse;whiteSpace=wrap;html=1;aspect=fixed;fontColor=#FFFF00;" vertex="1" parent="1">
                    <mxGeometry x="286" y="1926" width="30" height="30" as="geometry"/>
                </mxCell>
                <mxCell id="46" value="" style="ellipse;whiteSpace=wrap;html=1;aspect=fixed;fontColor=#FFFF00;" vertex="1" parent="1">
                    <mxGeometry x="332" y="1866" width="30" height="30" as="geometry"/>
                </mxCell>
                <mxCell id="47" value="Galaxies" style="text;html=1;strokeColor=none;fillColor=none;align=center;verticalAlign=middle;whiteSpace=wrap;rounded=0;fontColor=#FFFF00;" vertex="1" parent="1">
                    <mxGeometry x="62" y="1765" width="60" height="30" as="geometry"/>
                </mxCell>
                <mxCell id="48" value="Planets" style="text;html=1;strokeColor=none;fillColor=none;align=center;verticalAlign=middle;whiteSpace=wrap;rounded=0;fontColor=#FFFF00;" vertex="1" parent="1">
                    <mxGeometry x="62" y="1806" width="60" height="30" as="geometry"/>
                </mxCell>
                <mxCell id="49" value="" style="ellipse;whiteSpace=wrap;html=1;aspect=fixed;fontColor=#FFFF00;" vertex="1" parent="1">
                    <mxGeometry x="382" y="1916" width="30" height="30" as="geometry"/>
                </mxCell>
                <mxCell id="52" style="edgeStyle=none;html=1;exitX=0.5;exitY=1;exitDx=0;exitDy=0;entryX=1;entryY=1;entryDx=0;entryDy=0;fontColor=#FFFF00;endArrow=none;endFill=0;dashed=1;" edge="1" parent="1" source="50" target="51">
                    <mxGeometry relative="1" as="geometry"/>
                </mxCell>
                <mxCell id="53" style="edgeStyle=none;html=1;exitX=0.5;exitY=0;exitDx=0;exitDy=0;entryX=0;entryY=0;entryDx=0;entryDy=0;dashed=1;fontColor=#FFFF00;endArrow=none;endFill=0;" edge="1" parent="1" source="50" target="51">
                    <mxGeometry relative="1" as="geometry"/>
                </mxCell>
                <mxCell id="50" value="" style="ellipse;whiteSpace=wrap;html=1;aspect=fixed;fontColor=#FFFF00;" vertex="1" parent="1">
                    <mxGeometry x="412" y="1826" width="30" height="30" as="geometry"/>
                </mxCell>
                <mxCell id="51" value="Modal, or enter the galaxy, composing rules are imposed by the dictator/votes, implemented by the AI" style="rounded=0;whiteSpace=wrap;html=1;fontColor=#FFFF00;" vertex="1" parent="1">
                    <mxGeometry x="516" y="1781" width="140" height="80" as="geometry"/>
                </mxCell>
                <mxCell id="54" value="Universe" style="text;html=1;strokeColor=none;fillColor=none;align=center;verticalAlign=middle;whiteSpace=wrap;rounded=0;fontColor=#FFFF00;" vertex="1" parent="1">
                    <mxGeometry x="62" y="1842.5" width="60" height="30" as="geometry"/>
                </mxCell>
                <mxCell id="55" value="First you enter the webpage, it should be entering a movie. It can be achieved by frontend technologies like window.onload --&amp;gt; sequential page actions" style="rounded=0;whiteSpace=wrap;html=1;fontColor=#FFFF00;" vertex="1" parent="1">
                    <mxGeometry x="-238" y="1842.5" width="248" height="73.5" as="geometry"/>
                </mxCell>
                <mxCell id="57" value="" style="rounded=0;whiteSpace=wrap;html=1;fontColor=#FFFF00;" vertex="1" parent="1">
                    <mxGeometry x="52" y="2056" width="498" height="305" as="geometry"/>
                </mxCell>
                <mxCell id="58" value="" style="rounded=0;whiteSpace=wrap;html=1;fontColor=#FFFF00;" vertex="1" parent="1">
                    <mxGeometry x="52" y="2056" width="500" height="43" as="geometry"/>
                </mxCell>
                <mxCell id="59" value="Tooltip" style="text;html=1;strokeColor=none;fillColor=none;align=center;verticalAlign=middle;whiteSpace=wrap;rounded=0;fontColor=#FFFF00;" vertex="1" parent="1">
                    <mxGeometry x="162" y="2062.5" width="60" height="30" as="geometry"/>
                </mxCell>
                <mxCell id="60" value="Account - Currently online collaborators" style="text;html=1;strokeColor=none;fillColor=none;align=center;verticalAlign=middle;whiteSpace=wrap;rounded=0;fontColor=#FFFF00;" vertex="1" parent="1">
                    <mxGeometry x="320" y="2062.5" width="214" height="30" as="geometry"/>
                </mxCell>
                <mxCell id="61" value="" style="rounded=0;whiteSpace=wrap;html=1;fontColor=#FFFF00;" vertex="1" parent="1">
                    <mxGeometry x="52" y="2099" width="90" height="260" as="geometry"/>
                </mxCell>
                <mxCell id="68" value="Charactors" style="text;html=1;strokeColor=none;fillColor=none;align=center;verticalAlign=middle;whiteSpace=wrap;rounded=0;fontColor=#FFFF00;" vertex="1" parent="1">
                    <mxGeometry x="67" y="2135" width="60" height="30" as="geometry"/>
                </mxCell>
                <mxCell id="69" value="Planets" style="text;html=1;strokeColor=none;fillColor=none;align=center;verticalAlign=middle;whiteSpace=wrap;rounded=0;fontColor=#FFFF00;" vertex="1" parent="1">
                    <mxGeometry x="62" y="2105" width="60" height="30" as="geometry"/>
                </mxCell>
                <mxCell id="76" value="Text: Lorem ipsum dolor Lorem ipsum dolorLorem ipsum dolorLorem ipsum dolorLorem ipsum dolorLorem ipsum dolorLorem ipsum dolorLorem ipsum dolorLorem ipsum dolorLorem ipsum dolorLorem ipsum dolorLorem ipsum dolorLorem ipsum dolorLorem ipsum dolorLorem ipsum dolorLorem ipsum dolorLorem ipsum dolorLorem ipsum dolorLorem ipsum dolorLorem ipsum dolorLorem ipsum dolorLorem ipsum&amp;nbsp;&lt;br&gt;AI ASSITED RULE CHECK&lt;br&gt;AI ASSITED AUTO-COMPLETE" style="rounded=0;whiteSpace=wrap;html=1;fontColor=#FFFF00;" vertex="1" parent="1">
                    <mxGeometry x="152" y="2105" width="220" height="231" as="geometry"/>
                </mxCell>
                <mxCell id="77" value="Politics" style="text;html=1;strokeColor=none;fillColor=none;align=center;verticalAlign=middle;whiteSpace=wrap;rounded=0;fontColor=#FFFF00;" vertex="1" parent="1">
                    <mxGeometry x="67" y="2165" width="60" height="30" as="geometry"/>
                </mxCell>
                <mxCell id="78" value="Economy" style="text;html=1;strokeColor=none;fillColor=none;align=center;verticalAlign=middle;whiteSpace=wrap;rounded=0;fontColor=#FFFF00;" vertex="1" parent="1">
                    <mxGeometry x="67" y="2195" width="60" height="30" as="geometry"/>
                </mxCell>
                <mxCell id="79" value="Rules(Physics)" style="text;html=1;strokeColor=none;fillColor=none;align=center;verticalAlign=middle;whiteSpace=wrap;rounded=0;fontColor=#FFFF00;" vertex="1" parent="1">
                    <mxGeometry x="67" y="2236" width="60" height="31" as="geometry"/>
                </mxCell>
                <mxCell id="80" value="Friends" style="text;html=1;strokeColor=none;fillColor=none;align=center;verticalAlign=middle;whiteSpace=wrap;rounded=0;fontColor=#FFFF00;" vertex="1" parent="1">
                    <mxGeometry x="62" y="1886" width="60" height="30" as="geometry"/>
                </mxCell>
                <mxCell id="81" value="Network" style="text;html=1;strokeColor=none;fillColor=none;align=center;verticalAlign=middle;whiteSpace=wrap;rounded=0;fontColor=#FFFF00;" vertex="1" parent="1">
                    <mxGeometry x="62" y="1926" width="60" height="30" as="geometry"/>
                </mxCell>
                <mxCell id="82" value="AI generated Video" style="rounded=0;whiteSpace=wrap;html=1;fontColor=#FFFF00;" vertex="1" parent="1">
                    <mxGeometry x="382" y="2105" width="150" height="91" as="geometry"/>
                </mxCell>
                <mxCell id="83" value="Chat Room" style="rounded=0;whiteSpace=wrap;html=1;fontColor=#FFFF00;" vertex="1" parent="1">
                    <mxGeometry x="384" y="2206" width="150" height="130" as="geometry"/>
                </mxCell>
                <mxCell id="84" value="" style="shape=flexArrow;endArrow=classic;html=1;dashed=1;fontColor=#FFFF00;" edge="1" parent="1">
                    <mxGeometry width="50" height="50" relative="1" as="geometry">
                        <mxPoint x="566" y="2206" as="sourcePoint"/>
                        <mxPoint x="848" y="2206" as="targetPoint"/>
                    </mxGeometry>
                </mxCell>
                <mxCell id="85" value="Data collection" style="ellipse;shape=cloud;whiteSpace=wrap;html=1;fontColor=#FFFF00;fontSize=39;" vertex="1" parent="1">
                    <mxGeometry x="838" y="2073" width="420" height="263" as="geometry"/>
                </mxCell>
                <mxCell id="86" value="" style="shape=flexArrow;endArrow=classic;html=1;dashed=1;fontColor=#FFFF00;" edge="1" parent="1">
                    <mxGeometry width="50" height="50" relative="1" as="geometry">
                        <mxPoint x="1265.9999999999995" y="2203.87" as="sourcePoint"/>
                        <mxPoint x="1548" y="2203.87" as="targetPoint"/>
                    </mxGeometry>
                </mxCell>
                <mxCell id="88" value="3D/VR metaverse with UGC" style="ellipse;whiteSpace=wrap;html=1;aspect=fixed;fontSize=39;fontColor=#FFFF00;" vertex="1" parent="1">
                    <mxGeometry x="1569" y="2040.5" width="328" height="328" as="geometry"/>
                </mxCell>
                <mxCell id="89" value="When metaverse is technically feasible" style="text;html=1;strokeColor=none;fillColor=none;align=center;verticalAlign=middle;whiteSpace=wrap;rounded=0;fontSize=39;fontColor=#FFFF00;" vertex="1" parent="1">
                    <mxGeometry x="1276" y="2066" width="261" height="30" as="geometry"/>
                </mxCell>
                <mxCell id="90" value="Data first" style="text;html=1;strokeColor=none;fillColor=none;align=center;verticalAlign=middle;whiteSpace=wrap;rounded=0;fontSize=39;fontColor=#FFFF00;" vertex="1" parent="1">
                    <mxGeometry x="555" y="2135.5" width="261" height="30" as="geometry"/>
                </mxCell>
            </root>
        </mxGraphModel>
    </diagram>
</mxfile>